<svg xmlns="http://www.w3.org/2000/svg" xmlns:xlink="http://www.w3.org/1999/xlink" width="379.943" height="380.705" viewBox="0 0 379.943 380.705">
  <defs>
    <linearGradient id="linear-gradient" x1="1.163" y1="-0.658" x2="0.149" y2="1.113" gradientUnits="objectBoundingBox">
      <stop offset="0.01"/>
      <stop offset="0.13" stop-opacity="0.69"/>
      <stop offset="1" stop-opacity="0"/>
    </linearGradient>
    <linearGradient id="linear-gradient-2" x1="0.566" y1="-1.158" x2="0.47" y2="1.196" gradientUnits="objectBoundingBox">
      <stop offset="0.01"/>
      <stop offset="0.03" stop-opacity="0.69"/>
      <stop offset="1" stop-opacity="0"/>
    </linearGradient>
    <linearGradient id="linear-gradient-3" x1="2.516" y1="-1.684" x2="1.501" y2="0.986" xlink:href="#linear-gradient-2"/>
    <linearGradient id="linear-gradient-4" x1="2.169" y1="-5.171" x2="1.833" y2="1.723" xlink:href="#linear-gradient-2"/>
    <linearGradient id="linear-gradient-5" x1="0.697" y1="-0.655" x2="0.355" y2="1.259" xlink:href="#linear-gradient-2"/>
    <linearGradient id="linear-gradient-6" x1="1.223" y1="-1.427" x2="0.211" y2="1.229" xlink:href="#linear-gradient-2"/>
    <linearGradient id="linear-gradient-7" x1="0.761" y1="-4.887" x2="0.424" y2="1.979" xlink:href="#linear-gradient-2"/>
    <linearGradient id="linear-gradient-8" x1="0" y1="0.5" x2="1" y2="0.5" xlink:href="#linear-gradient-2"/>
    <linearGradient id="linear-gradient-9" x1="1.223" y1="-1.425" x2="0.211" y2="1.229" xlink:href="#linear-gradient-2"/>
    <linearGradient id="linear-gradient-10" x1="0.761" y1="-4.884" x2="0.424" y2="1.979" xlink:href="#linear-gradient-2"/>
    <linearGradient id="linear-gradient-11" x1="0.457" y1="-1.375" x2="0.511" y2="0.945" gradientUnits="objectBoundingBox">
      <stop offset="0.01" stop-color="#fff"/>
      <stop offset="0.13" stop-color="#fff" stop-opacity="0.69"/>
      <stop offset="1" stop-color="#fff" stop-opacity="0"/>
    </linearGradient>
    <linearGradient id="linear-gradient-12" x1="0.129" y1="-0.575" x2="0.644" y2="0.959" xlink:href="#linear-gradient"/>
    <linearGradient id="linear-gradient-13" x1="0.335" y1="2.466" x2="0.517" y2="0.002" xlink:href="#linear-gradient"/>
    <linearGradient id="linear-gradient-14" x1="2.956" y1="-1.846" x2="-0.036" y2="1.061" xlink:href="#linear-gradient-2"/>
  </defs>
  <g id="american_pancake" transform="matrix(0.695, -0.719, 0.719, 0.695, -0.002, 204.572)">
    <path id="Path_88" data-name="Path 88" d="M52.912,20.37C77.187-.154,112.8-5.307,142.714,5.442,156.9,10.532,169.9,18.86,184.557,22.378c24.167,5.791,51.642-1.759,73.2,10.7,13.488,7.783,21.886,22.213,27.07,36.908,3.316,9.4,5.581,19.193,9.745,28.245,3.2,6.966,7.487,13.4,10.4,20.493,6.048,14.788,5.7,31.576,1.479,46.956-9.34,34-36.822,61.051-68.733,76.034-27.14,12.741-60.32,17.31-86.565,2.818-10.266-5.666-18.89-13.9-28.852-20.081-26.914-16.648-63.6-18.734-83.093-43.656-19.131-24.463-10.453-55.105-13.34-83.218C22.853,68.276,29.406,40.256,52.912,20.37Z" transform="translate(-25.18 0.03)" fill="#6dfdc4" opacity="0.18"/>
    <path id="Path_211" data-name="Path 211" d="M72.975,0A72.975,72.975,0,1,1,0,72.975,72.975,72.975,0,0,1,72.975,0Z" transform="translate(51.408 49.611)" fill="url(#linear-gradient)"/>
    <path id="Path_210" data-name="Path 210" d="M72.975,0A72.975,72.975,0,1,1,0,72.975,72.975,72.975,0,0,1,72.975,0Z" transform="translate(58.864 39.998)" fill="#fff"/>
    <path id="Path_89" data-name="Path 89" d="M171.378,187.662c9.822.716,20.711,1.043,28.323-5.2,4.46-3.666,7.075-9.075,10.788-13.5,4.436-5.3,10.429-9.161,14.695-14.593,3.985-5.082,6.227-11.27,8.344-17.372,1.44-4.218,2.841-8.523,2.989-12.967.265-8-3.627-15.745-9.223-21.466s-12.78-9.643-20.127-12.811c-9.293-3.993-19.217-6.95-29.335-6.919-7.215,0-14.337,1.557-21.31,3.393-5.137,1.346-10.328,2.9-14.718,5.892-5.767,3.938-9.7,10.071-12.562,16.438s-4.826,13.115-7.6,19.528c-1.331,3.113-2.88,6.227-2.973,9.581a21.015,21.015,0,0,0,1.5,7.308c2.685,7.783,6.343,15.566,12.57,20.929,6.694,5.783,15.566,8.211,24.26,9.994,2.561.529,5.355,1.136,7,3.168a4.289,4.289,0,0,1-1.082,6.3C164.887,187.374,168.693,187.467,171.378,187.662Z" transform="translate(-45.905 -18.338)" fill="url(#linear-gradient-2)"/>
    <path id="Path_90" data-name="Path 90" d="M163.13,108.612c-8.087,1.689-16.072,4.475-22.766,9.34s-12.017,11.908-13.605,20.011c-2.4,12.243,3.783,24.354,9.76,35.3,1.666,3.051,3.386,6.164,5.97,8.491,2.864,2.592,6.569,4.016,10.188,5.378,8.818,3.323,17.9,6.7,27.319,6.515s19.388-4.756,23.163-13.387c2.28-5.215,2.07-11.208,4.008-16.563.88-2.428,2.187-4.67,3.113-7.075,2.981-7.573,2.164-16.345-1.144-23.747C200.544,113.476,183.787,104.3,163.13,108.612Z" transform="translate(-47.581 -23.821)" fill="#6dfdc4"/>
    <path id="Path_91" data-name="Path 91" d="M206.036,136.252c-.062-.358-.132-.724-.218-1.074-.568-2.187-2.156-3.549-3.378-5.3a51.315,51.315,0,0,0-3.938-5.137,34.387,34.387,0,0,0-5.152-4.67c-1.183-.872-3.993-1.666-3.814-3.4a51.16,51.16,0,0,1-6.281-1.922,6.9,6.9,0,0,0-1.673-.584,18.935,18.935,0,0,0-2.8.171,20.656,20.656,0,0,1-2.747-.389c-2.055-.28-4.133.2-6.227.265s-3.993-.257-5.978-.086a19.373,19.373,0,0,0-6.694,2.14,9.283,9.283,0,0,1-4.468,1.393,6.608,6.608,0,0,0-2.14-.062,3.627,3.627,0,0,0-1.5,1.066c-4.359,4.343-9.5,8.1-12.64,13.488a40.18,40.18,0,0,0-4.763,15.885,13,13,0,0,0,.942,7.371,34.161,34.161,0,0,1,1.821,3.246c.685,1.782.428,3.829,1.175,5.588a24,24,0,0,0,1.378,2.335,22.189,22.189,0,0,1,1.518,3.845,23.272,23.272,0,0,0,3.6,7.091,11.254,11.254,0,0,0,6.577,4.218,13.362,13.362,0,0,1,2.156.42c2.234.778,3.292,3.518,5.448,4.468,1.658.716,3.58.265,5.355.6a14.937,14.937,0,0,1,2.942,1.059,34.16,34.16,0,0,0,22.112,1.191,23.8,23.8,0,0,0,9.791-5.293,17.956,17.956,0,0,0,3.285-4.413c1.113-1.93,2.95-3.495,2.958-5.915,0-1.23-.475-2.405-.56-3.635-.14-2.117.934-4.11,1.977-5.962l3.355-6a6.8,6.8,0,0,0,.848-1.954c.366-1.821-.778-3.588-1.012-5.448-.475-3.347,1.891-6.865.6-9.994-.35-.848-.942-1.557-1.3-2.421a10.117,10.117,0,0,1-.545-2.179Z" transform="translate(-48.746 -25.216)" fill="url(#linear-gradient-3)"/>
    <path id="Path_92" data-name="Path 92" d="M205.9,157.728c-.778,2-1.876,3.892-2.607,5.9-1.627,4.46-1.448,9.457-3.347,13.807-3.113,7.192-11.449,11.005-19.31,11.153s-15.419-2.662-22.766-5.448c-3.012-1.144-6.1-2.335-8.5-4.483-.195-.179-.389-.366-.568-.553l-.2-.21-.444-.483a8.98,8.98,0,0,1-.607-.778c-.195-.288-.335-.444-.5-.677l-.14-.195-.358-.537c-.163-.249-.319-.506-.475-.778s-.311-.514-.459-.778l-.451-.778c-.249-.444-.506-.911-.778-1.385a16.827,16.827,0,0,0-2.514-3.713,5.122,5.122,0,0,1-1.3-1.634,6.412,6.412,0,0,1-.21-1.393c-.3-2.631-2.335-4.927-2.21-7.565a7.323,7.323,0,0,0,0-2.1,9.03,9.03,0,0,0-.545-1.269c-.716-1.712-.093-3.674-.389-5.51a10.806,10.806,0,0,1-.226-1.767c0-.662.335-1.292.381-1.969a8.069,8.069,0,0,0-.132-1.619,7.783,7.783,0,0,1,2.226-6.227,4.669,4.669,0,0,0,.934-1.074,5.448,5.448,0,0,0,.381-1.16,5.8,5.8,0,0,1,1.852-2.9,7.782,7.782,0,0,0,1.276-1.144,6.584,6.584,0,0,0,.693-1.409c1.557-3.611,6.094-5.752,9.519-7.316l.179-.078c.817-.381,1.65-.724,2.491-1.043.35-.148.708-.28,1.074-.413s.778-.288,1.206-.42c.817-.288,1.642-.537,2.475-.778.413-.117.825-.234,1.253-.342.3-.093.607-.163.918-.241L165,118.1c.529-.125,1.051-.233,1.557-.342,17.224-3.6,31.187,4.055,38.363,20.236C207.71,144.138,208.387,151.416,205.9,157.728Z" transform="translate(-49.968 -25.888)" fill="url(#linear-gradient-4)"/>
    <path id="Path_93" data-name="Path 93" d="M152.434,172.876c4.841,3.829,10.679,6.125,16.43,8.367a42.1,42.1,0,0,0,6.655,2.179,41.718,41.718,0,0,0,8.647.553c6.11-.039,12.406-.054,18.065,2.257a5.635,5.635,0,0,0,2.973.677c1.759-.3,2.631-2.28,3.113-4.008a43.322,43.322,0,0,0,1.417-11.441,1.7,1.7,0,0,0-.117-.685,1.619,1.619,0,0,0-.825-.638c-5.044-2.335-10.414-3.783-15.668-5.573-13.87-4.732-26.875-11.628-40.185-17.777-3.783-1.743-10.935-3.549-12.087,2.335-1.035,5.223,2.1,12.017,4.841,16.282a30.5,30.5,0,0,0,6.74,7.472Z" transform="translate(-50.777 -32.14)" fill="url(#linear-gradient-5)"/>
    <path id="Path_94" data-name="Path 94" d="M197.64,79.47c-8.172,1.191-16.345,3.471-23.3,7.892S161.612,98.507,159.549,106.5c-3.113,12.072,2.28,24.54,7.573,35.8,1.479,3.113,3,6.359,5.448,8.849,2.7,2.755,6.312,4.405,9.838,5.985,8.6,3.892,17.458,7.783,26.868,8.188s19.645-3.557,23.941-11.939c2.6-5.067,2.755-11.068,5.02-16.29,1.027-2.335,2.475-4.53,3.565-6.865,3.448-7.378,3.16-16.15.319-23.778C234.68,86.622,218.522,76.434,197.64,79.47Z" transform="translate(-54.764 -17.476)" fill="#6dfdc4"/>
    <path id="Path_95" data-name="Path 95" d="M238.758,109.55c-.039-.366-.086-.724-.156-1.09-.428-2.218-1.93-3.674-3.043-5.448a51.9,51.9,0,0,0-3.611-5.378,34.406,34.406,0,0,0-4.857-4.958c-1.129-.942-3.892-1.907-3.6-3.635a50.5,50.5,0,0,1-6.149-2.335,6.912,6.912,0,0,0-1.627-.677,17.815,17.815,0,0,0-2.81,0,20.235,20.235,0,0,1-2.716-.56c-2.039-.4-4.141-.047-6.227-.109S200,84.854,198,84.909a19.271,19.271,0,0,0-6.81,1.72,9.4,9.4,0,0,1-4.545,1.121,6.445,6.445,0,0,0-2.133-.195,3.619,3.619,0,0,0-1.557.965c-4.615,4.071-9.978,7.511-13.442,12.694a40.328,40.328,0,0,0-5.736,15.566,12.924,12.924,0,0,0,.49,7.417,34.816,34.816,0,0,1,1.619,3.347c.568,1.821.187,3.845.825,5.651a23.918,23.918,0,0,0,1.23,2.444,22.314,22.314,0,0,1,1.284,3.892,23.117,23.117,0,0,0,3.152,7.3,11.239,11.239,0,0,0,6.3,4.615,13.322,13.322,0,0,1,2.125.553c2.179.942,3.113,3.713,5.191,4.794,1.611.817,3.565.483,5.316.926a15.759,15.759,0,0,1,2.864,1.238,34.2,34.2,0,0,0,21.941,2.475,23.677,23.677,0,0,0,10.118-4.67,17.77,17.77,0,0,0,3.557-4.2c1.222-1.86,3.16-3.308,3.316-5.728.078-1.222-.335-2.428-.335-3.658,0-2.125,1.183-4.047,2.335-5.83l3.72-5.783a7.169,7.169,0,0,0,.965-1.9c.475-1.8-.529-3.627-.677-5.448-.272-3.378,2.335-6.74,1.214-9.947-.3-.864-.848-1.627-1.152-2.491a10.4,10.4,0,0,1-.428-2.234Z" transform="translate(-55.837 -18.798)" fill="url(#linear-gradient-6)"/>
    <path id="Path_96" data-name="Path 96" d="M237.418,130.979c-.911,1.946-2.109,3.751-2.965,5.728-1.891,4.351-2.024,9.34-4.187,13.574-3.58,7-12.1,10.282-19.956,9.947s-15.224-3.6-22.392-6.818c-2.934-1.323-5.946-2.693-8.2-5-.187-.187-.366-.389-.537-.584l-.187-.218-.413-.514c-.195-.257-.381-.514-.56-.778s-.311-.467-.459-.708l-.125-.2-.327-.56c-.148-.257-.288-.521-.428-.778s-.28-.529-.413-.778l-.4-.778c-.226-.459-.451-.942-.677-1.432a17.285,17.285,0,0,0-2.28-3.892,5.138,5.138,0,0,1-1.2-1.712,6.018,6.018,0,0,1-.125-1.4c-.132-2.646-2.016-5.059-1.743-7.69a7.346,7.346,0,0,0,.163-2.094,8.942,8.942,0,0,0-.467-1.3c-.607-1.751.132-3.674-.047-5.526a10.119,10.119,0,0,1-.156-1.876c.078-.662.413-1.276.506-1.946a8.756,8.756,0,0,0,0-1.627,7.783,7.783,0,0,1,2.568-6.063,4.756,4.756,0,0,0,1-1.012,5.768,5.768,0,0,0,.451-1.136,5.791,5.791,0,0,1,2.024-2.779,8.2,8.2,0,0,0,1.346-1.066,6.715,6.715,0,0,0,.778-1.362c1.806-3.51,6.437-5.37,9.947-6.717l.187-.07q1.261-.49,2.545-.887c.366-.125.724-.234,1.1-.342s.825-.241,1.238-.35c.833-.233,1.666-.436,2.514-.623l1.269-.265c.311-.07.623-.125.934-.187l1.292-.226c.537-.093,1.066-.171,1.6-.249,17.411-2.53,30.876,5.962,37.048,22.517C240.056,117.521,240.29,124.83,237.418,130.979Z" transform="translate(-57.128 -19.538)" fill="url(#linear-gradient-7)"/>
    <path id="Path_97" data-name="Path 97" d="M228.93,157.648a7.438,7.438,0,0,0,.662-1.37c.576-1.619.988-3.285,1.627-4.88,1.183-2.942,3.113-5.6,3.954-8.647.825-2.888.677-5.962,1.175-8.927.459-2.74,1.463-5.355,2.031-8.079,2.428-11.675-4.148-24.237-14.477-30.214.537,12.757,2.639,25.685.086,38.184a86.578,86.578,0,0,1-2.9,10.235c-.957,2.818-1.557,6.063-2.95,8.647a52.039,52.039,0,0,1-11.955,14.695,72.1,72.1,0,0,0,12.78,1.767,1.953,1.953,0,0,0,.95-.117,1.891,1.891,0,0,0,.615-.576l6.6-8.281a23.572,23.572,0,0,0,1.806-2.436Z" transform="translate(-65.304 -21.153)" fill="url(#linear-gradient-8)"/>
    <path id="Path_98" data-name="Path 98" d="M174.74,81.01c-8.172,1.191-16.345,3.479-23.3,7.892s-12.726,11.146-14.788,19.139c-3.113,12.072,2.28,24.54,7.573,35.8,1.479,3.113,3,6.359,5.448,8.85,2.7,2.755,6.312,4.405,9.838,5.985,8.562,3.892,17.458,7.783,26.868,8.188s19.645-3.557,23.941-11.939c2.6-5.067,2.755-11.068,5.02-16.29,1.027-2.335,2.475-4.53,3.565-6.865,3.448-7.378,3.16-16.15.319-23.778C211.78,88.162,195.622,77.974,174.74,81.01Z" transform="translate(-49.687 -17.817)" fill="#6dfdc4"/>
    <path id="Path_99" data-name="Path 99" d="M215.858,111.079c-.039-.366-.086-.724-.156-1.082-.428-2.226-1.93-3.674-3.043-5.495a50.969,50.969,0,0,0-3.611-5.37,34.066,34.066,0,0,0-4.857-4.966c-1.129-.942-3.892-1.907-3.6-3.635a50.5,50.5,0,0,1-6.149-2.335,6.912,6.912,0,0,0-1.627-.677,17.815,17.815,0,0,0-2.81,0,19.114,19.114,0,0,1-2.716-.56c-2.039-.4-4.141-.047-6.227-.109s-3.969-.506-5.962-.451a19.115,19.115,0,0,0-6.81,1.728,9.481,9.481,0,0,1-4.545,1.113,6.444,6.444,0,0,0-2.133-.195,3.619,3.619,0,0,0-1.557.965c-4.615,4.071-9.978,7.511-13.442,12.694a40.328,40.328,0,0,0-5.736,15.566,12.925,12.925,0,0,0,.49,7.417,34.812,34.812,0,0,1,1.619,3.347c.568,1.821.187,3.853.825,5.651a24.9,24.9,0,0,0,1.23,2.452,22.025,22.025,0,0,1,1.284,3.892,23.116,23.116,0,0,0,3.137,7.324,11.239,11.239,0,0,0,6.3,4.615,14.2,14.2,0,0,1,2.125.553c2.179.95,3.074,3.713,5.191,4.794,1.611.817,3.557.483,5.316.934a15.2,15.2,0,0,1,2.856,1.245A34.2,34.2,0,0,0,193.2,162.97a23.676,23.676,0,0,0,10.118-4.67,17.768,17.768,0,0,0,3.557-4.2c1.222-1.86,3.113-3.308,3.316-5.728.078-1.222-.335-2.428-.335-3.658,0-2.125,1.183-4.047,2.335-5.83l3.72-5.783a7.051,7.051,0,0,0,.965-1.9c.475-1.8-.529-3.627-.677-5.448-.272-3.378,2.335-6.74,1.214-9.947-.3-.864-.848-1.627-1.152-2.491a10.406,10.406,0,0,1-.4-2.242Z" transform="translate(-50.76 -19.128)" fill="url(#linear-gradient-9)"/>
    <path id="Path_100" data-name="Path 100" d="M214.518,132.51c-.911,1.946-2.109,3.751-2.965,5.728-1.891,4.351-2.024,9.34-4.187,13.574-3.58,7-12.1,10.282-19.956,9.947s-15.224-3.6-22.392-6.818c-2.934-1.323-5.946-2.693-8.2-5-.187-.187-.366-.389-.537-.584l-.187-.218-.413-.514c-.195-.257-.381-.514-.56-.778s-.311-.467-.459-.708l-.125-.2-.327-.56c-.148-.257-.288-.521-.428-.778s-.28-.529-.413-.778l-.4-.778c-.226-.459-.451-.942-.677-1.432a17.287,17.287,0,0,0-2.28-3.892,5.137,5.137,0,0,1-1.2-1.712,6.017,6.017,0,0,1-.125-1.4c-.132-2.646-2.016-5.059-1.743-7.69a7.346,7.346,0,0,0,.163-2.094,8.94,8.94,0,0,0-.467-1.3c-.607-1.751.132-3.674-.047-5.526a10.118,10.118,0,0,1-.156-1.876c.078-.662.412-1.276.506-1.946a8.751,8.751,0,0,0,0-1.627,7.783,7.783,0,0,1,2.6-6.094,4.755,4.755,0,0,0,1-1.012,5.767,5.767,0,0,0,.451-1.136,5.791,5.791,0,0,1,2.024-2.779,8.2,8.2,0,0,0,1.346-1.066,6.718,6.718,0,0,0,.778-1.362c1.806-3.51,6.437-5.37,9.947-6.717l.187-.07q1.261-.49,2.545-.887c.366-.125.724-.233,1.1-.342l1.238-.35c.833-.233,1.666-.436,2.514-.623l1.269-.265c.311-.07.623-.125.934-.187l1.292-.226c.537-.093,1.066-.171,1.557-.249,17.411-2.53,30.876,5.962,37.048,22.517C217.156,119.053,217.39,126.361,214.518,132.51Z" transform="translate(-52.051 -19.871)" fill="url(#linear-gradient-10)"/>
    <path id="Path_101" data-name="Path 101" d="M145.447,143.44a19.785,19.785,0,0,0-8.655,15.294,2.919,2.919,0,0,0,.335,1.806,2.133,2.133,0,0,0,2.724.436,5.347,5.347,0,0,0,1.938-2.265,24.906,24.906,0,0,0,2.389-6.328,64.648,64.648,0,0,1,23.412-5.191c-2.81,3.814-7.651,5.394-11.893,7.511s-8.562,5.83-8.274,10.562c1.658.957,3.113-1.417,4.312-2.919a12.235,12.235,0,0,1,4.141-2.95c8.328-4.351,16.734-8.717,25.77-11.293,11.815-3.362,24.463-3.557,35.958-7.908l1.907,3.238c2.179-1.884.553-5.806-2.117-6.865s-5.666-.28-8.484.288-6.055.833-8.274-.988l19.154-7.947a1.385,1.385,0,0,1,1.16,1.339c1.891-.646,1.487-3.759-.249-4.74s-3.892-.553-5.853-.163c-7.628,1.5-15.426,1.79-23.194,2.07a2.413,2.413,0,0,0,.708-2.078l-14.858,2.28a24.858,24.858,0,0,0-8.367,2.4c-2.53,1.417-3.689,3.666-5.728,5.448C158.282,139.035,151.043,139.72,145.447,143.44Z" transform="translate(-49.916 -27.447)" fill="url(#linear-gradient-11)"/>
    <path id="Path_102" data-name="Path 102" d="M182.916,139.361a17.59,17.59,0,0,0,5.386.537h6.818a4.172,4.172,0,0,0,1.782-.28,3.627,3.627,0,0,0,1.113-.981,21.668,21.668,0,0,0,3.954-7,4.67,4.67,0,0,0,.319-1.806,4.817,4.817,0,0,0-2.1-3.113c-1.261-1.1-2.856-2.218-4.452-1.736a5.042,5.042,0,0,0-1.315.685l-11.107,7.27c-1.051.685-4.218,2.039-4.2,3.339C179.157,137.672,181.819,138.979,182.916,139.361Z" transform="translate(-59.303 -27.656)" fill="url(#linear-gradient-12)"/>
    <path id="Path_103" data-name="Path 103" d="M176.178,122.134a2.2,2.2,0,0,0-1.144.833,2.078,2.078,0,0,0-.187.926l-.171,3.79a4.919,4.919,0,0,0,.054,1.222,4.522,4.522,0,0,0,.724,1.432l2.164,3.277a2.9,2.9,0,0,0,.778.9,2.848,2.848,0,0,0,1.6.319q7.4.047,14.788-.553a2.008,2.008,0,0,0,.856-.2,1.853,1.853,0,0,0,.56-.615,10.476,10.476,0,0,0,1.082-8.842,10,10,0,0,1-4.148-2.755c-1.689-2.234-3.946-5.207-7.223-4.67-1.6.257-3.059,1.51-4.429,2.335a56.04,56.04,0,0,1-5.3,2.607Z" transform="translate(-58.317 -25.941)" fill="#6dfdc4"/>
    <path id="Path_104" data-name="Path 104" d="M222.686,128.416a.685.685,0,0,0,.778-.117,6.447,6.447,0,0,1,.646-.576,44.707,44.707,0,0,0,2.856,4.561c1.432-.467,2.008-2.21,2.008-3.713s-.358-3.051.07-4.5a3.665,3.665,0,0,0,.257-1.175,2.218,2.218,0,0,0-.506-1.105,10.687,10.687,0,0,0-3-2.786.677.677,0,0,0-.63-.125.654.654,0,0,0-.265.475c-.381,1.806.171,3.323-.778,4.935C223.729,124.976,221.721,127.684,222.686,128.416Z" transform="translate(-68.906 -26.323)" fill="#6dfdc4"/>
    <path id="Path_105" data-name="Path 105" d="M217.524,105.545a24.44,24.44,0,0,0-5.184-2.685,7.534,7.534,0,0,0,3.277,3.627c.483.265,1.066.568,1.144,1.113a2.023,2.023,0,0,0,.078.615c.179.381.778.327,1.121.132C219.8,107.413,218.839,106.432,217.524,105.545Z" transform="translate(-66.67 -22.778)" fill="#6dfdc4"/>
    <path id="Path_106" data-name="Path 106" d="M182.307,132.8a4.958,4.958,0,0,1-3.051-.95,12.241,12.241,0,0,1-1.619-2.709,4.716,4.716,0,0,0-1.9-1.681c-.171,1.876-.288,3.892.716,5.495.677,1.066,1.821,1.813,2.374,2.95l.366.584a1.51,1.51,0,0,0,1.323.475l12.453.1a3.993,3.993,0,0,0,1.666-.234,3.113,3.113,0,0,0,.926-.693,9.278,9.278,0,0,0,2.226-9.083c.14.436-2.491,2.592-2.919,2.888a14.976,14.976,0,0,1-3.79,1.837,23.015,23.015,0,0,1-8.772,1.02Z" transform="translate(-58.53 -28.143)" fill="url(#linear-gradient-13)"/>
    <path id="Path_107" data-name="Path 107" d="M91.474,66.367a23.241,23.241,0,1,1-6.8-16.472A23.272,23.272,0,0,1,91.474,66.367Z" transform="translate(-29.558 -9.526)" fill="#6dfdc4" opacity="0.18"/>
    <path id="Path_108" data-name="Path 108" d="M77.773,88.858A23.272,23.272,0,1,1,49.38,52.76a23.272,23.272,0,0,0,28.393,36.1Z" transform="translate(-27.875 -11.672)" fill="url(#linear-gradient-14)"/>
    <path id="Path_209" data-name="Path 209" d="M18.68,0A18.68,18.68,0,1,1,0,18.68,18.68,18.68,0,0,1,18.68,0Z" transform="translate(19.972 38.138)" fill="#fff"/>
    <path id="Path_109" data-name="Path 109" d="M53.728,76.842V70.288a30.806,30.806,0,0,1,4.452-8.741,9.921,9.921,0,0,1,4.506-3.72,9.6,9.6,0,0,1,5.277.132A16.407,16.407,0,0,1,76.813,63.1c2.195,2.693,3.067,6.608,1.557,9.729-.887,1.852-2.568,3.8-1.712,5.658s3.541,1.852,5.316.9c3.471-1.884,5.106-5.993,5.69-9.9a21.015,21.015,0,0,0-.047-7.215,17.574,17.574,0,0,0-8.865-11.753,20.384,20.384,0,0,0-14.788-1.6A18.728,18.728,0,0,0,51.51,59.1C49.3,64.186,49.829,72.95,53.728,76.842Z" transform="translate(-30.729 -10.661)" fill="#6dfdc4" opacity="0.13"/>
  </g>
</svg>
