<svg xmlns="http://www.w3.org/2000/svg" width="45" height="45" viewBox="0 0 45 45">
  <g id="Group_32" data-name="Group 32" transform="translate(445 -604)">
    <circle id="Ellipse_33" data-name="Ellipse 33" cx="22.5" cy="22.5" r="22.5" transform="translate(-445 604)" fill="#fff"/>
    <path id="iconmonstr-github-1" d="M22.4,0a22.4,22.4,0,0,0-7.081,43.661c1.118.207,1.48-.487,1.48-1.077V38.413c-6.232,1.355-7.529-2.643-7.529-2.643a5.933,5.933,0,0,0-2.489-3.278c-2.033-1.391.155-1.361.155-1.361a4.7,4.7,0,0,1,3.433,2.309c2,3.424,5.24,2.434,6.519,1.861a4.753,4.753,0,0,1,1.423-2.994c-4.975-.569-10.206-2.49-10.206-11.072a8.671,8.671,0,0,1,2.307-6.013,8.058,8.058,0,0,1,.218-5.929s1.882-.6,6.163,2.3a21.234,21.234,0,0,1,11.218,0c4.277-2.9,6.155-2.3,6.155-2.3a8.05,8.05,0,0,1,.22,5.929A8.647,8.647,0,0,1,36.7,21.234c0,8.6-5.24,10.5-10.229,11.054A5.355,5.355,0,0,1,28,36.436v6.148c0,.6.358,1.3,1.5,1.075A22.407,22.407,0,0,0,22.4,0Z" transform="translate(-445 604)"/>
  </g>
</svg>
