<svg xmlns="http://www.w3.org/2000/svg" xmlns:xlink="http://www.w3.org/1999/xlink" width="218.481" height="174.709" viewBox="0 0 218.481 174.709">
  <defs>
    <linearGradient id="linear-gradient" y1="0.499" x2="1" y2="0.499" gradientUnits="objectBoundingBox">
      <stop offset="0" stop-opacity="0"/>
      <stop offset="0.99"/>
    </linearGradient>
    <linearGradient id="linear-gradient-2" x1="0" y1="0.5" x2="1" y2="0.5" xlink:href="#linear-gradient"/>
    <linearGradient id="linear-gradient-3" x1="0.784" y1="-0.503" x2="-0.429" y2="2.976" xlink:href="#linear-gradient"/>
    <linearGradient id="linear-gradient-4" x1="0.2" y1="-0.037" x2="0.684" y2="0.702" xlink:href="#linear-gradient"/>
    <linearGradient id="linear-gradient-5" x1="0.118" y1="-0.021" x2="1.184" y2="0.931" xlink:href="#linear-gradient"/>
    <linearGradient id="linear-gradient-6" x1="0.446" y1="0.185" x2="1.12" y2="0.88" xlink:href="#linear-gradient"/>
    <linearGradient id="linear-gradient-7" x1="0" y1="0.5" x2="1" y2="0.5" xlink:href="#linear-gradient"/>
    <linearGradient id="linear-gradient-8" x1="1.943" y1="0.409" x2="-3.702" y2="0.745" xlink:href="#linear-gradient"/>
    <linearGradient id="linear-gradient-9" x1="0.001" y1="0.5" x2="1" y2="0.5" gradientUnits="objectBoundingBox">
      <stop offset="0" stop-color="#e5c5d5"/>
      <stop offset="0.42" stop-color="#ead4d1"/>
      <stop offset="1" stop-color="#f0e9cb"/>
    </linearGradient>
    <linearGradient id="linear-gradient-10" x1="0.001" y1="0.5" x2="1" y2="0.5" xlink:href="#linear-gradient-9"/>
    <linearGradient id="linear-gradient-11" x1="0.54" y1="-0.023" x2="0.472" y2="0.945" xlink:href="#linear-gradient"/>
    <linearGradient id="linear-gradient-12" x1="0" y1="0.5" x2="1" y2="0.5" xlink:href="#linear-gradient-9"/>
    <linearGradient id="linear-gradient-13" x1="-100.963" y1="-64.97" x2="-99.98" y2="-64.97" xlink:href="#linear-gradient-9"/>
    <linearGradient id="linear-gradient-14" x1="0.515" y1="-0.043" x2="0.436" y2="1.422" xlink:href="#linear-gradient"/>
    <linearGradient id="linear-gradient-15" x1="0.375" y1="0.302" x2="0.724" y2="0.964" xlink:href="#linear-gradient"/>
    <linearGradient id="linear-gradient-16" x1="0" y1="0.499" x2="1.002" y2="0.499" xlink:href="#linear-gradient-9"/>
    <linearGradient id="linear-gradient-17" x1="1.364" y1="0.465" x2="-0.032" y2="0.524" gradientUnits="objectBoundingBox">
      <stop offset="0.02" stop-color="#fff" stop-opacity="0"/>
      <stop offset="0.58" stop-color="#fff" stop-opacity="0.388"/>
      <stop offset="0.68" stop-color="#fff" stop-opacity="0.678"/>
      <stop offset="1" stop-color="#fff"/>
    </linearGradient>
    <linearGradient id="linear-gradient-18" x1="2.451" y1="-0.279" x2="-0.565" y2="0.919" xlink:href="#linear-gradient-17"/>
    <linearGradient id="linear-gradient-19" x1="0.622" y1="-0.227" x2="0.096" y2="2.834" xlink:href="#linear-gradient-17"/>
    <linearGradient id="linear-gradient-20" x1="0.49" y1="0.371" x2="0.566" y2="1.146" xlink:href="#linear-gradient"/>
  </defs>
  <g id="fast_working" transform="translate(0.06 0)">
    <path id="Path_51" data-name="Path 51" d="M186.008,18.9c-4.909-1.784-9.384-4.6-14.269-6.426C165.109,10,157.946,9.41,150.85,9.42c-22.883,0-46.226,6.378-64.11,20.652C79.615,35.746,73.213,42.733,64.685,45.9,57.935,48.407,50,48.469,44.542,53.164c-6.107,5.232-6.863,14.359-6.316,22.4s1.855,16.528-1.579,23.815c-2.017,4.281-5.475,7.662-8.309,11.448a44.895,44.895,0,0,0,14.269,66.189c11.23,6.183,24.542,7.306,37.37,7.092,11.71-.2,23.957-1.57,33.675-8.109,6.259-4.219,11.177-10.4,17.974-13.684,8.2-3.948,17.755-3.082,26.854-3.139,10.778-.076,21.822-1.674,31.225-6.944s16.932-14.7,17.789-25.441c.652-8.243-2.511-16.837.252-24.623a27.6,27.6,0,0,1,4.885-8.01c7.3-8.994,16.956-16.443,21.565-27.1,2.5-5.765,3.329-12.114,3.624-18.388.361-7.9-.7-17-7.187-21.541-5.879-4.114-13.118-2.212-19.743-3.163C202.746,22.78,193.766,21.705,186.008,18.9Z" transform="translate(-19.46 -9.42)" fill="#6dfdc4" opacity="0.18"/>
    <path id="Path_52" data-name="Path 52" d="M142.768,199.751s-21.042-5.161-35.14,6.549,1.988,6.754,7.134,8.343,12.9,4.566,12.9,4.566S149.122,209.074,142.768,199.751Z" transform="translate(-62.76 -108.63)" fill="#3e3e54"/>
    <path id="Path_53" data-name="Path 53" d="M142.768,199.751s-21.042-5.161-35.14,6.549,1.988,6.754,7.134,8.343,12.9,4.566,12.9,4.566S149.122,209.074,142.768,199.751Z" transform="translate(-62.76 -108.63)" fill="url(#linear-gradient)"/>
    <path id="Path_54" data-name="Path 54" d="M170.524,263.978s13.237-8.733,21.441-6.088l6.882,2.117s-4.233,26.74-27.8,29.123c0,0-5.027.528.533-8.737A13.824,13.824,0,0,0,170.524,263.978Z" transform="translate(-97.889 -139.449)" fill="#3e3e54"/>
    <path id="Path_55" data-name="Path 55" d="M170.524,263.978s13.237-8.733,21.441-6.088l6.882,2.117s-4.233,26.74-27.8,29.123c0,0-5.027.528.533-8.737A13.824,13.824,0,0,0,170.524,263.978Z" transform="translate(-97.889 -139.449)" fill="url(#linear-gradient-2)"/>
    <path id="Path_56" data-name="Path 56" d="M238.754,84.444a10.521,10.521,0,0,0,3.02,1.056,11.667,11.667,0,0,0,4.609-.713,54.017,54.017,0,0,1,5.332-1.2,3.163,3.163,0,0,1,2.854.476,2.235,2.235,0,0,1-.052,2.811,6.5,6.5,0,0,1-2.5,1.722l-5.413,2.583a17.037,17.037,0,0,1-2.892,1.17c-4.124,1.113-8.4-.951-12-3.249-1.384-.894-2.882-2.074-2.939-3.719a5.437,5.437,0,0,1,.4-1.9,4.323,4.323,0,0,1,1.132-1.983C231.948,80.078,237.1,83.669,238.754,84.444Z" transform="translate(-129.253 -47.041)" fill="#2fb8ff"/>
    <path id="Path_57" data-name="Path 57" d="M238.535,84.574a10.52,10.52,0,0,0,3.02,1.056,11.668,11.668,0,0,0,4.609-.713,52.684,52.684,0,0,1,5.351-1.2,3.137,3.137,0,0,1,2.854.476A2.229,2.229,0,0,1,254.316,87a6.5,6.5,0,0,1-2.5,1.722L246.407,91.3a17.04,17.04,0,0,1-2.892,1.17c-4.124,1.113-8.4-.951-12-3.249-1.384-.889-2.882-2.074-2.939-3.719a5.285,5.285,0,0,1,.4-1.9,4.338,4.338,0,0,1,1.094-1.969C231.729,80.208,236.865,83.8,238.535,84.574Z" transform="translate(-129.148 -47.114)" fill="url(#linear-gradient-3)"/>
    <path id="Path_58" data-name="Path 58" d="M252.985,130.15a45.847,45.847,0,0,1-5.47,6.535c-1.96,2.059-3.919,4.086-6.526,5.051a4.615,4.615,0,0,1-3.976-.086,3.893,3.893,0,0,1-1.555-3.924,7.9,7.9,0,0,1,2.107-3.886,21.14,21.14,0,0,1,2.692-2.763c1.075-.818,2.216-.775,3.62-.875A68.492,68.492,0,0,1,252.985,130.15Z" transform="translate(-132.725 -72.661)" fill="#3e3e54"/>
    <path id="Path_59" data-name="Path 59" d="M252.985,130.15a45.847,45.847,0,0,1-5.47,6.535c-1.96,2.059-3.919,4.086-6.526,5.051a4.615,4.615,0,0,1-3.976-.086,3.893,3.893,0,0,1-1.555-3.924,7.9,7.9,0,0,1,2.107-3.886,21.14,21.14,0,0,1,2.692-2.763c1.075-.818,2.216-.775,3.62-.875A68.492,68.492,0,0,1,252.985,130.15Z" transform="translate(-132.725 -72.661)" fill="url(#linear-gradient-4)"/>
    <path id="Path_60" data-name="Path 60" d="M289.044,84.559a32.436,32.436,0,0,1-.751,3.41,77.917,77.917,0,0,1-6.954,16.89C274.718,117,262.589,132.921,240.6,147.666c-34.531,23.239-64.838,27.111-76.02,27.7-2.958.166-4.58.1-4.58.1l-10.126-15.7s11.415-16.994,32.019-34.816h0a187.558,187.558,0,0,1,30.778-21.765A175.025,175.025,0,0,1,233.005,93.4a136.852,136.852,0,0,1,29.8-8.433C279.365,82.39,289.044,84.559,289.044,84.559Z" transform="translate(-87.875 -48.373)" fill="#6dfdc4"/>
    <path id="Path_61" data-name="Path 61" d="M242.973,120.84c-.476.88,1,3.686,1.812,4.281a9.152,9.152,0,0,1,2.378,1.779,1.251,1.251,0,0,1,.252,1.042c-.152.533-.761.771-1.289.951l-14.193,4.366a2.283,2.283,0,0,0-1.056.537,1.565,1.565,0,0,0,.366,2.183,3.805,3.805,0,0,0,2.378.59c4.59,0,9.632-1.9,13.475.59a11.539,11.539,0,0,1,2.8,2.854,39.477,39.477,0,0,1,6.136,11.924,6.416,6.416,0,0,1,.281,4.067,12.5,12.5,0,0,1-5.555-4.466c-1.722-2.511-2.606-5.736-5.113-7.458a9.816,9.816,0,0,0-6.416-1.241c-2.216.186-4.4.742-6.621.771-4.947.062-9.513-2.378-13.869-4.756-.908-.476-1.941-1.184-1.96-2.221a1.722,1.722,0,0,1,.2-.818h0a187.559,187.559,0,0,1,30.778-21.765A175.03,175.03,0,0,1,268.1,104.26C269.979,106.938,243.177,120.474,242.973,120.84Z" transform="translate(-122.96 -59.151)" fill="url(#linear-gradient-5)"/>
    <path id="Path_62" data-name="Path 62" d="M413.207,84.931s-1.175,8.324-7.705,20.3a62.5,62.5,0,0,1-6.183-2.3c-8.285-3.548-11.7-15.149-12.328-17.555C403.528,82.766,413.207,84.931,413.207,84.931Z" transform="translate(-212.213 -48.574)" fill="url(#linear-gradient-6)"/>
    <circle id="Ellipse_10" data-name="Ellipse 10" cx="7.895" cy="7.895" r="7.895" transform="translate(153.687 51.197)" fill="#3e3e54" opacity="0.31"/>
    <circle id="Ellipse_11" data-name="Ellipse 11" cx="7.895" cy="7.895" r="7.895" transform="translate(132.84 63.306)" fill="#3e3e54" opacity="0.31"/>
    <circle id="Ellipse_12" data-name="Ellipse 12" cx="7.895" cy="7.895" r="7.895" transform="translate(110.01 78.793)" fill="#3e3e54" opacity="0.31"/>
    <path id="Path_63" data-name="Path 63" d="M128.776,223.27l13.237,21.175-7.149,2.649L124.01,228.83Z" transform="translate(-65.059 -117.076)" fill="#3e3e54"/>
    <path id="Path_64" data-name="Path 64" d="M223.024,161.99c6.255,1.512,12.78-.119,19.092-1.379a3.8,3.8,0,0,1,1.988-.029,3.7,3.7,0,0,1,1.684,1.612,55.023,55.023,0,0,1,5.417,10.554c.856,2.231,1.66,4.656,3.562,6.1s5.3,1.122,5.988-1.165c-3.249-9.137-7.249-17.984-11.244-26.821a3.441,3.441,0,0,0-3.61-2.644l-22.526-1.945c-5.061-.438-12.671-1.108-10.973,5.931C213.573,157.115,218.267,160.839,223.024,161.99Z" transform="translate(-120.538 -81.052)" fill="#3e3e54"/>
    <path id="Path_65" data-name="Path 65" d="M223.024,161.99c6.255,1.512,12.78-.119,19.092-1.379a3.8,3.8,0,0,1,1.988-.029,3.7,3.7,0,0,1,1.684,1.612,55.023,55.023,0,0,1,5.417,10.554c.856,2.231,1.66,4.656,3.562,6.1s5.3,1.122,5.988-1.165c-3.249-9.137-7.249-17.984-11.244-26.821a3.441,3.441,0,0,0-3.61-2.644l-22.526-1.945c-5.061-.438-12.671-1.108-10.973,5.931C213.573,157.115,218.267,160.839,223.024,161.99Z" transform="translate(-120.538 -81.052)" fill="url(#linear-gradient-7)"/>
    <path id="Path_66" data-name="Path 66" d="M223.916,105.232a9.942,9.942,0,0,1-.69,4.5,6.9,6.9,0,0,1-4.756,3.406,12.9,12.9,0,0,1-1.9.281,31,31,0,0,1-4.1-.09c-2.611-.171-5.574-.528-7.134-2.63-1.094-1.479-1.189-3.448-1.232-5.289-.114-5.032-.138-10.064-.176-15.1,0-2.878-1.165-6.759-.756-9.513a6.354,6.354,0,0,1,3.981-5.146c3.857-1.65,9.46-.438,12.2,2.706,2.193,2.511,3.039,5.912,3.553,9.208A111.614,111.614,0,0,1,223.916,105.232Z" transform="translate(-115.78 -43.766)" fill="#2fb8ff"/>
    <path id="Path_67" data-name="Path 67" d="M215.357,96.461q.371,5.708.4,11.415a20.359,20.359,0,0,0,.152,3.139c.128.794.637,1.527.728,2.278a3.125,3.125,0,0,1-.029.951,31,31,0,0,1-4.1-.09c-2.611-.171-5.574-.528-7.134-2.63-1.094-1.479-1.189-3.448-1.232-5.289-.114-5.032-.138-10.064-.176-15.1,0-2.878-1.165-6.759-.756-9.513A6.354,6.354,0,0,1,207.2,76.48a5.386,5.386,0,0,1,.885.381,13.278,13.278,0,0,1,4.081,3.881,12.26,12.26,0,0,1,1.522,2.43,12.656,12.656,0,0,1,.8,3.543c.295,2.5.533,5,.728,7.515.1,1.341-.252,2.188,1.194,2.445a27.863,27.863,0,0,0,3.719.395c1.27.057,2.773-.09,3.444-1.17a2.464,2.464,0,0,0-.214-2.659,4.714,4.714,0,0,0-2.3-1.57c-.885-.323-1.817-.5-2.711-.8a6.659,6.659,0,0,1-2.459-1.375,3.805,3.805,0,0,1-1.265-2.469" transform="translate(-115.801 -44.584)" fill="url(#linear-gradient-8)"/>
    <path id="Path_68" data-name="Path 68" d="M216.83,68.541a4.547,4.547,0,0,0,.057,1.37,3.853,3.853,0,0,0,2.4,2.312c.652.285,1.522.476,1.993-.071a1.873,1.873,0,0,0,.162-1.612l-.628-3a10.032,10.032,0,0,0-.547-1.964c-.276-.642-2.1-3.258-3.02-2.592-.385.276-.224,2.159-.247,2.63Z" transform="translate(-122.972 -37.45)" fill="url(#linear-gradient-9)"/>
    <path id="Path_69" data-name="Path 69" d="M216.658,55.231a7.61,7.61,0,0,0,1.646,3.363,4.951,4.951,0,0,0,3.277,1.7,2.25,2.25,0,0,0,1.341-.262,3.072,3.072,0,0,0,1.051-1.546c1.08-2.621,2.174-5.5,1.356-8.224a3.329,3.329,0,0,0-1.474-2.04,3.667,3.667,0,0,0-2.5-.138c-1.427.323-3.567,1.065-4.49,2.283S216.344,53.894,216.658,55.231Z" transform="translate(-122.705 -29.614)" fill="url(#linear-gradient-10)"/>
    <path id="Path_70" data-name="Path 70" d="M210.548,37.82a6.511,6.511,0,0,0-6.492.671c-1.2.9-2.055,2.193-3.277,3.054a21.368,21.368,0,0,1-3.834,1.755c-.157.067-.333.166-.362.333-.048.257.252.423.371.656.181.357-.109.766-.38,1.065l-1.551,1.693a1.123,1.123,0,0,0-.366.637c-.052.652.87.837,1.522.78l2.15-.19a12.214,12.214,0,0,0-3.225,3.182c.476.5,1.356.266,1.941-.119s1.142-.951,1.836-.913c-1.042,1.679,2.221,1.612,3.2,1.589a6.092,6.092,0,0,0,2.378-.647,2.821,2.821,0,0,0,.951-.614,1.161,1.161,0,0,0,.333-1.042,2.984,2.984,0,0,0-.2-.476,2.226,2.226,0,0,1,.029-1.9c.048-.09.109-.19.214-.2a.343.343,0,0,1,.233.081l.718.476a3.662,3.662,0,0,1,3.482-3.805c1.484-.081,4.2.652,3.843-1.769A6.277,6.277,0,0,0,210.548,37.82Z" transform="translate(-111.359 -24.013)" fill="#3e3e54"/>
    <path id="Path_71" data-name="Path 71" d="M212.916,43.844a1.6,1.6,0,0,0-.033-2.92,4.124,4.124,0,0,0-2.235-.476,8.561,8.561,0,0,0-3.776.785c-1.617.809-2.787,2.3-4.281,3.329a13.474,13.474,0,0,1-4.114,1.717,4.39,4.39,0,0,0-1.855.78c-.086.081-.171.19-.133.3a.352.352,0,0,0,.114.124,1.532,1.532,0,0,0,1.265.214c.247-.067.476-.2.7-.285a4.542,4.542,0,0,1,2.174,0,7.03,7.03,0,0,0,3.02-.081,13.345,13.345,0,0,0,2.378-1.189,1.993,1.993,0,0,1,.951-.2,3.848,3.848,0,0,0-.366,1.708l-.718-.476a.342.342,0,0,0-.262-.067c-.1,0-.167.114-.214.2a2.245,2.245,0,0,0-.029,1.9,2.586,2.586,0,0,1,.2.476,1.132,1.132,0,0,1-.323,1.042,3.087,3.087,0,0,1-.951.618,6.183,6.183,0,0,1-2.378.642c-.951,0-4.228.09-3.191-1.589a3.731,3.731,0,0,0-1.836.913c-.552.357-1.427.618-1.941.119a12.143,12.143,0,0,1,3.225-3.182l-2.15.19c-.656.057-1.574-.128-1.522-.78a1.141,1.141,0,0,1,.361-.637l1.555-1.693c.271-.3.561-.709.38-1.065-.119-.233-.419-.4-.371-.656.029-.171.2-.266.361-.338a22.541,22.541,0,0,0,3.834-1.746c1.227-.861,2.083-2.164,3.277-3.054a6.492,6.492,0,0,1,6.492-.675,6.258,6.258,0,0,1,3.486,4.281C214.191,43.254,213.672,43.692,212.916,43.844Z" transform="translate(-111.348 -24.001)" fill="url(#linear-gradient-11)"/>
    <path id="Path_72" data-name="Path 72" d="M284.8,81.475a3.731,3.731,0,0,1,3.767,1.094.775.775,0,0,1,.19.438.276.276,0,0,1-.252.309h-.994a10.323,10.323,0,0,0-1.864,1.465,6.421,6.421,0,0,1-2.83,1.327c-1.379.271-3.092-.666-2.021-2.164A7.471,7.471,0,0,1,284.8,81.475Z" transform="translate(-156.355 -47.144)" fill="url(#linear-gradient-12)"/>
    <path id="Path_73" data-name="Path 73" d="M276.258,105.716a1.57,1.57,0,0,1,.861,1.118.438.438,0,0,1-.043.233c-.128.219-.447.166-.7.124-1.641-.295-3.2.985-4.87.951a2.949,2.949,0,0,1-2.026-.88,2.413,2.413,0,0,1-.685-2.183c.281-.818,1.232-.832,1.974-.856A9.541,9.541,0,0,1,276.258,105.716Z" transform="translate(-150.195 -59.128)" fill="url(#linear-gradient-13)"/>
    <path id="Path_74" data-name="Path 74" d="M307.4,64.262l6.469-4.894s1.589-.533,2.121.133-.067,20.956-.067,20.956l-8.01,3.772Z" transform="translate(-170.479 -35.505)" fill="#6dfdc4"/>
    <path id="Path_75" data-name="Path 75" d="M307.6,64.382l6.483-4.894s1.589-.533,2.121.133-.162,20.928-.162,20.928l-7.914,3.805Z" transform="translate(-170.584 -35.568)" fill="url(#linear-gradient-14)"/>
    <path id="Path_76" data-name="Path 76" d="M309.517,64.192l6.687-4.661s-1.194-.861-2.121-.133-6.483,4.889-6.483,4.889Z" transform="translate(-170.584 -35.474)" fill="url(#linear-gradient-15)"/>
    <path id="Path_77" data-name="Path 77" d="M305.8,217.7a1.115,1.115,0,0,0,.224.347,1,1,0,0,0,.414.2,2.782,2.782,0,0,0,2.312-.38,1.621,1.621,0,0,0,.623-.737,2.325,2.325,0,0,0-.09-1.427l-.395-1.37a.1.1,0,0,0-.024-.052h-.109c-1.146.685-2.5,0-3.591.476C304.245,215.2,305.467,217,305.8,217.7Z" transform="translate(-169.131 -116.843)" fill="url(#linear-gradient-16)"/>
    <path id="Path_78" data-name="Path 78" d="M307.518,219.1a7.727,7.727,0,0,0-1.146.157,1.132,1.132,0,0,0-.809.751,1.55,1.55,0,0,0,.271,1.023c.276.509.552,1.018.847,1.517a1.9,1.9,0,0,0,.728.809,1.689,1.689,0,0,0,1.008.076,12.34,12.34,0,0,0,2.925-.951q2.854-1.2,5.665-2.573c.309-.152.652-.347.713-.685a.737.737,0,0,0-.233-.642,1.9,1.9,0,0,0-.609-.361,14.369,14.369,0,0,0-4.167-.918,4.016,4.016,0,0,0-1.822-.062c-.471.228-.923.79-1.427,1.094A4.98,4.98,0,0,1,307.518,219.1Z" transform="translate(-169.512 -118.345)" fill="#3e3e54"/>
    <path id="Path_79" data-name="Path 79" d="M236.9,97.309a7.016,7.016,0,0,1-2.711.951L229.027,99.3a12.737,12.737,0,0,1-3.467.381,11.92,11.92,0,0,1-3.092-.766c-4-1.427-10.354-3.106-13.427-6.216-2.326-2.378-1.755-7.087,1.251-8.266a4.119,4.119,0,0,1,1.8-.266c2.549.162,4.281,2.507,6.24,4.157,4.2,3.586,10.074,4.209,15.6,4.618h.485c1.427.1,3.187.476,3.577,1.841A2.475,2.475,0,0,1,236.9,97.309Z" transform="translate(-118.151 -48.609)" fill="#00a8ff"/>
    <path id="Path_80" data-name="Path 80" d="M277.619,97.405l14.1-7.724,1.389-20.053s-2.14-.885-2.316,1.146-1.674,17.294-1.674,17.294l-12.176,6.44A1.653,1.653,0,0,0,277.619,97.405Z" transform="translate(-154.172 -40.891)" fill="#6dfdc4"/>
    <path id="Path_81" data-name="Path 81" d="M107.93,261.231a29.242,29.242,0,0,1-15.51,11.891l2.426-5.2a91.393,91.393,0,0,1-9.717,10.792,30.45,30.45,0,0,1-12.5,7.134c-.476-.69.033-1.612.537-2.283a99.073,99.073,0,0,1,11.077-12.419c-9.289,5.408-18.616,10.835-28.609,14.792A112.981,112.981,0,0,1,78.46,262.4l-6.126,1.579A90.06,90.06,0,0,1,97.952,243.4,102.69,102.69,0,0,1,107.93,261.231Z" transform="translate(-38.458 -132.112)" fill="#6dfdc4"/>
    <path id="Path_82" data-name="Path 82" d="M107.93,261.231a29.242,29.242,0,0,1-15.51,11.891l2.426-5.2a91.393,91.393,0,0,1-9.717,10.792,30.45,30.45,0,0,1-12.5,7.134c-.476-.69.033-1.612.537-2.283a99.073,99.073,0,0,1,11.077-12.419c-9.289,5.408-18.616,10.835-28.609,14.792A112.981,112.981,0,0,1,78.46,262.4l-6.126,1.579A90.06,90.06,0,0,1,97.952,243.4,102.69,102.69,0,0,1,107.93,261.231Z" transform="translate(-38.458 -132.112)" fill="url(#linear-gradient-17)"/>
    <path id="Path_83" data-name="Path 83" d="M119.747,261.42c-.224.309-.447.723-.252,1.051a1.038,1.038,0,0,0,.595.366l1.831.6a54.218,54.218,0,0,0-6.5,6.8c-.328.409-.647,1.032-.271,1.4a.985.985,0,0,0,.633.224c2.545.228,4.918-1.18,7.087-2.53a10.892,10.892,0,0,1-2.007,3.929,16.668,16.668,0,0,0,6.659-3.225c1.983-1.479,3.853-3.172,5.9-4.6l-.675,1.76a11.533,11.533,0,0,0,3.177-3.12,1.427,1.427,0,0,0,.2-1.665,27.358,27.358,0,0,0-4.323-7.643,3.966,3.966,0,0,0-1.189-1.1c-1.493-.785-4.609,1.769-5.807,2.649A22.959,22.959,0,0,0,119.747,261.42Z" transform="translate(-69.581 -137.419)" fill="#6dfdc4"/>
    <path id="Path_84" data-name="Path 84" d="M119.747,261.42c-.224.309-.447.723-.252,1.051a1.038,1.038,0,0,0,.595.366l1.831.6a54.218,54.218,0,0,0-6.5,6.8c-.328.409-.647,1.032-.271,1.4a.985.985,0,0,0,.633.224c2.545.228,4.918-1.18,7.087-2.53a10.892,10.892,0,0,1-2.007,3.929,16.668,16.668,0,0,0,6.659-3.225c1.983-1.479,3.853-3.172,5.9-4.6l-.675,1.76a11.533,11.533,0,0,0,3.177-3.12,1.427,1.427,0,0,0,.2-1.665,27.358,27.358,0,0,0-4.323-7.643,3.966,3.966,0,0,0-1.189-1.1c-1.493-.785-4.609,1.769-5.807,2.649A22.959,22.959,0,0,0,119.747,261.42Z" transform="translate(-69.581 -137.419)" fill="url(#linear-gradient-18)"/>
    <path id="Path_85" data-name="Path 85" d="M239,94.759a1.984,1.984,0,0,1-.9.128,54.369,54.369,0,0,1-9.513-.6,19.086,19.086,0,0,1-8.7-3.662c-1.746-1.427-3.125-3.191-4.875-4.58-.476-.395-1.712-.889-1.774-1.608a4.119,4.119,0,0,1,1.8-.266c2.549.162,4.281,2.507,6.24,4.157,4.2,3.586,10.074,4.209,15.6,4.618h.114a4.966,4.966,0,0,1,1.993.6A.832.832,0,0,1,239.4,94,.68.68,0,0,1,239,94.759Z" transform="translate(-121.104 -48.609)" fill="url(#linear-gradient-19)"/>
    <path id="Path_86" data-name="Path 86" d="M300.891,85.813l-.585,3.244a77.349,77.349,0,0,1-6.949,16.89c-6.625,12.143-18.749,28.038-40.738,42.807-34.535,23.239-64.843,27.111-76.025,27.7l-3.8-5.284c87.459-25.822,108.12-67.145,110.527-67.487s9.646-17.9,9.646-17.9Z" transform="translate(-99.893 -49.461)" fill="url(#linear-gradient-20)"/>
    <path id="Path_87" data-name="Path 87" d="M215.733,46.47a1.76,1.76,0,0,1-.832.951,5.306,5.306,0,0,1-.951.476l-3.734,1.5a3.182,3.182,0,0,1-1.18.162,1.993,1.993,0,0,0-.951.2,13.348,13.348,0,0,1-2.378,1.189,7.03,7.03,0,0,1-3.02.081,4.542,4.542,0,0,0-2.174,0c-.238.086-.476.219-.7.285a1.532,1.532,0,0,1-1.265-.214.352.352,0,0,1-.114-.124c-.038-.109.048-.219.133-.3a4.39,4.39,0,0,1,1.855-.78,13.475,13.475,0,0,0,4.114-1.717c1.5-1.013,2.673-2.5,4.281-3.329a8.561,8.561,0,0,1,3.776-.785,4.124,4.124,0,0,1,2.235.476A1.765,1.765,0,0,1,215.733,46.47Z" transform="translate(-113.333 -27.583)" fill="none"/>
  </g>
</svg>
