<svg xmlns="http://www.w3.org/2000/svg" width="703.553" height="610.279" viewBox="0 0 703.553 610.279">
  <g id="cartoon" transform="translate(141.152 -145.95)">
    <path id="background" d="M467.082-961.216c-27.686,9.65-77.7,84.128-95.482,156.653s80.381,169.021-50.5,246.218-125.685,91.518,37.913,149.416,266.791,24.124,317.129,21.711,103.352-50.813,178.7,0,103.033-321,50.178-417.345S814.413-857.483,701.153-939.5,494.767-970.865,467.082-961.216Z" transform="translate(-370.189 1131.473)" fill="#cde7de"/>
    <path id="background-2" data-name="background" d="M467.082-961.216c-27.686,9.65-77.7,84.128-95.482,156.653s80.381,169.021-50.5,246.218-125.685,91.518,37.913,149.416,266.791,24.124,317.129,21.711,103.352-50.813,178.7,0,103.033-321,50.178-417.345S814.413-857.483,701.153-939.5,494.767-970.865,467.082-961.216Z" transform="translate(-370.189 1131.473)" fill="#cde7de"/>
    <path id="cloth" d="M203,158.349c-50.444,30.057-103.617,160.9-103.617,160.9l250.491-1.321s57.123-137.014,35.938-159.114S224.328,145.644,203,158.349Z" transform="translate(105.557 360.956)" fill="#00a8ff"/>
    <g id="body" transform="translate(140.423 345.225)">
      <path id="left_line" data-name="left line" d="M142.136,305.25a.741.741,0,0,1-.348-.1.711.711,0,0,1-.29-.973c1.162-2.105,8.712-18.209,18.136-38.581,30.173-64.891,44.853-95.921,46.6-96.793a.74.74,0,0,1,.973.319.726.726,0,0,1-.334.973c-2.207,2.105-28.518,58.677-45.928,96.11-9.5,20.328-16.989,36.519-18.179,38.668A.74.74,0,0,1,142.136,305.25Z" transform="translate(-15.867 26.303)" fill="#231f20"/>
      <g id="neck_group" data-name="neck group">
        <path id="neck_and_head" data-name="neck and head" d="M1548.567,937.069l-1.452-33.963s-13.78,1.075-18.339-15.449.914-55.584.914-55.584a108.348,108.348,0,0,0,55.5-14.36c-.4,20.252,4.992,31.143,9.7,36.763a14.318,14.318,0,0,1,2.341-3.192,25.57,25.57,0,0,1,7.173-4.7,10.587,10.587,0,0,1,4.487-1.351,8.531,8.531,0,0,1,3.208.769,10.959,10.959,0,0,1,5.881,4.893,12.879,12.879,0,0,1,.987,6.171,25.528,25.528,0,0,1-.9,6.8,17.334,17.334,0,0,1-14.543,12.277l5.4,45.064a44.8,44.8,0,0,1-26.66,27.719,28.1,28.1,0,0,1-9.742,1.815C1557.333,950.732,1548.567,937.069,1548.567,937.069Z" transform="translate(-1319.073 -761)" fill="#9d6334"/>
        <path id="neck_shadow" data-name="neck shadow" d="M1532.417,918.28c-2.981-2.362-4.76-6.483-5.287-12.247a65.326,65.326,0,0,1,1.112-16.85,144.888,144.888,0,0,1,5.627-21.332,34.038,34.038,0,0,0,6.28,6.831,27.777,27.777,0,0,0,17.664,6.832h.007a28.261,28.261,0,0,0,9.735-1.814,44.661,44.661,0,0,0,26.536-27.356,57.687,57.687,0,0,1-3.22,10.849,94.232,94.232,0,0,1-5.5,11.371,137.278,137.278,0,0,1-15.5,21.879,108.462,108.462,0,0,1-17.647,16.687c-5.982,4.344-11.222,6.641-15.154,6.641h0A7.305,7.305,0,0,1,1532.417,918.28Zm0-84.392s21.055.45,33.862-16.176c0,0-6.534,33.789-32.976,36.518Zm61.774,17.882-.92-7.683c1.169,1.709,1.479,4.295.922,7.683Z" transform="translate(-1304.374 -691.781)" fill="#341e0c"/>
        <path id="nose" d="M216.913,118.069a6.853,6.853,0,0,1-4.734-1.452c-3.122-2.9,4.545-17.25,6.97-21.592a.725.725,0,0,1,1.263.712c-4.7,8.407-8.814,18.368-7.26,19.82,2.149,2,7.7.7,9.656,0a.741.741,0,0,1,.929.45.726.726,0,0,1-.45.915A22.011,22.011,0,0,1,216.913,118.069Z" transform="translate(15.791 -7.181)" fill="#231f20"/>
        <path id="mouth" d="M222.27,130.576a11.819,11.819,0,0,1-6.447-1.844c-6.128-3.877-7.972-12.415-8.059-12.778a.74.74,0,0,1,1.452-.29s1.815,8.306,7.42,11.849a11.166,11.166,0,0,0,8.872,1.22c12.894-3.093,12.807-19.022,12.807-19.181a.726.726,0,0,1,.711-.741h0a.741.741,0,0,1,.726.711c0,.174.116,17.25-13.925,20.619a15.246,15.246,0,0,1-3.557.436Z" transform="translate(14.121 -0.783)" fill="#231f20"/>
      </g>
      <g id="glass_border" data-name="glass border">
        <path id="Path_16" data-name="Path 16" d="M244.53,68.89s17.424,5.677,37.608,25.628l-2.773,11.05S264.089,86.024,245.212,79.33Z" transform="translate(30.747 -18.828)" fill="#231f20"/>
        <path id="Path_19" data-name="Path 19" d="M209.947,137.743c-3.456,0-31.8-13.852-35.009-15.421a.726.726,0,0,1-.319-.3c-6.36-11.442-7.028-41.339,2.9-48.832,9.511-7.13,76.958-24.22,84.683-22.841,8.088,1.452,24.438,16.916,28.416,23.349,2.251,3.63,2.759,14.2,2.265,23.073-.247,4.269-1.336,18.557-5.431,22.652-6.215,6.215-38.987,13.068-44.113,13.068a17.119,17.119,0,0,1-7.8-2.4c-2-1-3.732-1.859-5.285-1.6-1.045.174-1.234.378-1.249.421a2.747,2.747,0,0,0,.1.842,5.459,5.459,0,0,1-.131,3.514C227.386,137.409,210.121,137.743,209.947,137.743Zm-34.108-16.626c12.531,6.142,31.814,15.174,34.166,15.174,5.6,0,16.873-1.452,17.744-3.543a4.037,4.037,0,0,0,0-2.643,2.468,2.468,0,0,1,.1-1.975,3.165,3.165,0,0,1,2.236-1.045c2.018-.334,4.037.668,6.157,1.742a15.973,15.973,0,0,0,7.159,2.236c5.358,0,37.375-6.97,43.082-12.676s6.8-37.753,2.9-43.924S269.495,53.089,262,51.768,187.847,67.3,178.452,74.361,169.885,110.183,175.839,121.117Z" transform="translate(-2.974 -27.247)" fill="#231f20"/>
        <path id="Path_18" data-name="Path 18" d="M175.044,121.449s31.306,15.333,34.689,15.333,17.192-.929,18.412-3.993-1.844-4.6,1.844-5.213,7.681,3.979,13.2,3.979,37.753-7.057,43.561-12.894,7.071-38.363,3.078-44.81S269.717,52.2,261.89,50.822c-7.26-1.278-74.3,15.348-84.116,22.724S168.9,110.4,175.044,121.449Z" transform="translate(-2.76 -27.027)" fill="#6dfdc4"/>
        <path id="Path_20" data-name="Path 20" d="M260.329,50.818c-13.823,1.234-75.506,13.5-84.218,19.5s-9.206,46.044-.45,51.112,81.038-9.22,93.017-20.721S274.065,49.642,260.329,50.818Z" transform="translate(-3.246 -27.009)" fill="#67bd9b"/>
        <path id="Path_22" data-name="Path 22" d="M253.834,100.286a.755.755,0,0,1-.508-.2l-13.2-12.589a.712.712,0,0,1,0-1.016.726.726,0,0,1,1.031,0l13.2,12.589a.711.711,0,0,1,0,1.016.7.7,0,0,1-.523.2Z" transform="translate(28.66 -10.976)" fill="#231f20"/>
        <path id="Path_24" data-name="Path 24" d="M185.917,111.783a30.888,30.888,0,0,1-5.3-.392c-2.294-.407-3.674-1.162-4.225-2.28-3.95-8.219-4.356-30.115.45-34.849,2.469-2.468,22.376-8.306,40.221-12.517,11.239-2.657,37.855-8.465,42.109-5.039s7.449,12.357,7.812,20.721c.3,6.708-1.365,12.168-4.69,15.363-4.443,4.356-23.232,9.8-37.869,13.228C211.56,108.981,195.835,111.783,185.917,111.783Zm68.246-54.727c-16.321,0-72.181,14.085-76.261,18.165s-4.095,25.12-.174,33.252c.32.653,1.452,1.191,3.18,1.452,15.769,2.9,73.1-11.239,80.4-18.281,3.006-2.9,4.516-7.972,4.255-14.259-.348-8-3.543-16.626-7.26-19.646A7.608,7.608,0,0,0,254.163,57.056Z" transform="translate(-1.436 -24.811)" fill="#231f20"/>
        <path id="Path_21" data-name="Path 21" d="M183.149,123.443c-3.616,0-6.331-.363-7.71-1.162-3.732-2.164-6.215-10.251-6.65-21.65-.465-12.531,1.8-27.1,7.057-30.7,8.785-6.011,70.148-18.325,84.61-19.617,4.356-.363,8.364,2.9,11.268,9.322,7.042,15.464,4.487,35.183-2.41,41.819-6.476,6.229-29.041,12.734-48.062,16.757C207.413,121.149,192.355,123.443,183.149,123.443Zm77.452-72.4v.726c-13.3,1.176-75.346,13.5-83.913,19.37-4.2,2.9-6.955,15.522-6.432,29.447.406,10.731,2.672,18.557,5.924,20.43,3.848,2.236,22.681.465,44.781-4.225,23.625-4.995,42.211-11.428,47.365-16.379,7.855-7.551,7.565-28.155,2.091-40.178-1.525-3.354-4.835-8.93-9.816-8.465Z" transform="translate(-3.518 -27.236)" fill="#231f20"/>
        <path id="glass_line" data-name="glass line" d="M1552.922,847.989a.712.712,0,0,1,0-1.016l30.261-29.041a.7.7,0,0,1,1.016,0,.726.726,0,0,1,0,1.031L1553.939,848a.708.708,0,0,1-.494.218h0A.7.7,0,0,1,1552.922,847.989Zm-25.236-2.221a.815.815,0,0,1-.464-.16.754.754,0,0,1-.1-1.03c7.057-8.713,17.758-21.956,18.281-23.1a.725.725,0,0,1,.914-.45.754.754,0,0,1,.45.943c-.406,1.249-14.273,18.325-18.513,23.523a.711.711,0,0,1-.563.276Z" transform="translate(-1338.065 -774.985)" fill="#d1d3d4"/>
        <path id="glass_rope" data-name="glass rope" d="M1697.355,1105.312a.712.712,0,0,1,0-1.016.726.726,0,0,1,1.031,0,42.239,42.239,0,0,0,34.994,13.2,43.81,43.81,0,0,0,33.179-19.022c5.909-9.031,8.814-20.778,8.9-35.923.072-14.2-2.381-34.443-14.521-50.255a87.607,87.607,0,0,0-11.805-11.732c-8.553-7.551-17.424-15.334-18.63-27.24a45.388,45.388,0,0,1,0-7.014,36.337,36.337,0,0,0-.1-7.855c-1.307-8.088-8.421-15.3-19.021-19.283a112.516,112.516,0,0,0-13.62-3.847,109.1,109.1,0,0,1-14.419-4.124c-11.065-4.356-18.325-12.125-19.414-20.866a.726.726,0,0,1,.639-.814.712.712,0,0,1,.8.625c1.205,9.67,10.353,16.524,18.5,19.689a109.529,109.529,0,0,0,14.23,4.081,114.888,114.888,0,0,1,13.794,3.892c11.108,4.167,18.557,11.8,19.951,20.416a37.608,37.608,0,0,1,.116,8.175,42.2,42.2,0,0,0,0,6.781c1.146,11.326,9.786,18.877,18.15,26.3a90.313,90.313,0,0,1,11.979,11.935c12.4,16.132,14.912,36.723,14.84,51.156-.087,15.435-3.078,27.428-9.148,36.707a45.2,45.2,0,0,1-34.268,19.661,25.051,25.051,0,0,1-3.862.2c-.2,0-.4,0-.6,0A43.225,43.225,0,0,1,1697.355,1105.312ZM1530.749,975.558a34.326,34.326,0,0,1-1.481-28.039,46.47,46.47,0,0,1,17.961-21.9.712.712,0,0,1,1,.189.742.742,0,0,1-.2,1.017,45.012,45.012,0,0,0-17.425,21.2,32.818,32.818,0,0,0,1.453,26.833c2.41,4.356,6.911,8.32,11.616,7.26a.727.727,0,0,1,.871.552.74.74,0,0,1-.552.857,8.025,8.025,0,0,1-1.9.232C1537.385,983.762,1533.115,979.856,1530.749,975.558Zm134.328-86.294a.759.759,0,0,1-.48-.175.741.741,0,0,1-.072-1.03,46.19,46.19,0,0,0,10.469-36.78,31.266,31.266,0,0,0-6.781-15.784c-4.516-5.213-11.616-8.639-19.994-9.641-7.9-.93-15.973.275-22.913,1.452l-.7.13c-5.968,1.031-12.154,2.106-18.049.421a39.477,39.477,0,0,1-8.321-3.848,55.628,55.628,0,0,0-5.648-2.9,29.041,29.041,0,0,0-27.124,3.267,32.38,32.38,0,0,0-13.4,24.177.728.728,0,1,1-1.452-.1,33.832,33.832,0,0,1,14-25.266,30.5,30.5,0,0,1,28.548-3.369,52.8,52.8,0,0,1,5.808,2.9,39.319,39.319,0,0,0,8.015,3.717c5.576,1.583,11.616.552,17.424-.464l.7-.116c7.042-1.22,15.246-2.44,23.32-1.453,8.712,1.046,16.175,4.632,20.938,10.165a32.758,32.758,0,0,1,7.115,16.524,47.685,47.685,0,0,1-10.8,37.942.713.713,0,0,1-.529.235C1665.12,889.267,1665.1,889.266,1665.077,889.264Z" transform="translate(-1354.95 -817.712)" fill="#231f20"/>
      </g>
      <g id="hand_and_shadow" data-name="hand and shadow">
        <path id="Path_26" data-name="Path 26" d="M311.884,292.424c-10.382-22.158-103.095-107.349-110.471-118.4s-5.532-17.265-17.512-25.091-30.609-21.65-33.4-20.038-3.224,7.826-.915,11.515,9.9,8.291,11.965,11.979,2.076,4.835,2.076,4.835-33.4-7.826-37.985-12.444-11.282-20.938-15.885-23.233a16.379,16.379,0,0,0-9.438-1.452s-4.835-6.215-8.059-3.688c-2.149,1.684-1.8,4.588-.465,6.665-3.688-2.556-2.454,3.558-2.178,5.285a70.714,70.714,0,0,0,66.794,58.6c5.707.2,13.867-1.06,17.976,3.557,3.572,4.008,4.7,10.034,7.144,14.709q5.184,9.946,10.585,19.82c8.945,16.335,18.281,32.5,28.329,48.179,11.006,17.148,22.986,36.446,39.466,48.919C294.009,347.993,322.281,314.6,311.884,292.424Z" transform="translate(-39.467 2.378)" fill="#9d6334"/>
        <path id="Path_208" data-name="Path 208" d="M1723.1,1034.882c-8.132,0-16.8-3.18-25.164-9.51-15.885-12.023-27.748-30.493-38.218-46.9l-1.452-2.207c-9-14.042-18.281-29.811-28.358-48.223-3.543-6.49-7.115-13.17-10.6-19.834a53.522,53.522,0,0,1-2.337-5.532,29.026,29.026,0,0,0-4.691-9.031c-3.078-3.456-8.712-3.384-13.794-3.311h-3.673a71.151,71.151,0,0,1-67.462-59.214v-.305c-.436-2.542-.8-5.315.6-6.2a1.663,1.663,0,0,1,.9-.232,5.113,5.113,0,0,1,1.452-5.9,3.533,3.533,0,0,1,2.687-.741c2.628.335,5.271,3.209,6.113,4.211a17.1,17.1,0,0,1,9.468,1.453c2.787,1.452,5.953,7,9.307,12.923,2.367,4.181,4.821,8.523,6.767,10.469,3.412,3.413,24.684,9.148,36.461,11.965a25.737,25.737,0,0,0-1.685-3.5,29.181,29.181,0,0,0-5.939-5.953,31.66,31.66,0,0,1-6.026-5.982,12.108,12.108,0,0,1-1.264-8.712,5.81,5.81,0,0,1,2.44-3.776c2.25-1.321,9.641,3.413,24.8,13.751,3.34,2.28,6.505,4.443,9.351,6.3,7.957,5.2,9.918,9.656,12.416,15.29a62.629,62.629,0,0,0,5.285,10c2.614,3.92,16.8,17.976,33.208,34.239,29.811,29.52,70.627,69.959,77.321,84.218,5.14,10.948,1.278,25.033-9.176,33.5a29.219,29.219,0,0,1-18.662,6.737Zm-109.715-142.2a29.8,29.8,0,0,1,4.965,9.467,52.88,52.88,0,0,0,2.28,5.387c3.485,6.664,7.042,13.329,10.586,19.805,10.062,18.383,19.327,34.123,28.3,48.135l1.452,2.208c10.411,16.248,22.2,34.66,37.884,46.465,14.753,11.181,30.493,12.24,42.109,2.9,9.946-8.044,13.634-21.4,8.784-31.756-6.592-14.071-47.307-54.393-77.03-83.84-17.149-16.989-30.711-30.421-33.4-34.457a63.133,63.133,0,0,1-5.4-10.164c-2.4-5.416-4.356-9.7-11.893-14.666-2.9-1.874-6.025-4.037-9.38-6.317-8.567-5.808-21.534-14.68-23.233-13.707a4.513,4.513,0,0,0-1.757,2.9,10.525,10.525,0,0,0,1.089,7.637,31.12,31.12,0,0,0,5.735,5.648,29.309,29.309,0,0,1,6.259,6.346c2.062,3.674,2.164,4.965,2.164,5.2a.74.74,0,0,1-.276.566.712.712,0,0,1-.609.13c-1.453-.32-33.644-7.928-38.348-12.618-2.077-2.091-4.473-6.316-7-10.789-2.9-5.227-6.3-11.137-8.712-12.327a15.757,15.757,0,0,0-8.21-1.414c.838,3.7,5,19.06,16.864,29.671a.728.728,0,0,1,0,1.031.682.682,0,0,1-.581.29.728.728,0,0,1-.479-.174c-12.975-11.672-16.918-28.774-17.378-31.112-.892-1.109-3.307-3.63-5.332-3.868a2.122,2.122,0,0,0-1.612.42c-1.737,1.4-1.474,3.721-.411,5.512a.725.725,0,0,1,.094.155l.026.04a.722.722,0,0,1,.1.27c1.2,2.868,11.3,26.39,20.124,30.789a.726.726,0,0,1-.334,1.38v.043a.868.868,0,0,1-.32,0c-9.376-4.751-19.506-28.446-20.811-31.631-.6-.372-.874-.368-.94-.328s-.609.842,0,4.719v.32a69.7,69.7,0,0,0,66.1,57.994h3.587l2.265-.087C1605.443,888.865,1610.366,889.272,1613.387,892.685Z" transform="translate(-1477.911 -700.207)" fill="#231f20"/>
      </g>
      <path id="right_hand" data-name="right hand" d="M1547.76,950.26a.727.727,0,0,1,.168-.8c.348-.334,35.343-34.762,57.922-78.308a.709.709,0,0,1,.422-.358.716.716,0,0,1,.551.053.727.727,0,0,1,.305.973c-22.681,43.75-57.835,78.41-58.2,78.686a.71.71,0,0,1-.493.2h0A.726.726,0,0,1,1547.76,950.26Zm-20.479-55.031a.711.711,0,0,1-.189-1c.248-.377,25.15-37.143,45.667-76.13a.726.726,0,0,1,.973-.305.713.713,0,0,1,.305.973c-20.561,39.074-45.507,75.9-45.754,76.276a.708.708,0,0,1-.595.3h-.029A.667.667,0,0,1,1527.28,895.229Z" transform="translate(-1270.502 -619.914)" fill="#231f20"/>
    </g>
    <g id="ball_in_hand" data-name="ball in hand" transform="translate(142.423 344.225)">
      <circle id="Ellipse_7" data-name="Ellipse 7" cx="36.301" cy="36.301" r="36.301" transform="translate(49.863 37.56)" fill="#fcac3f"/>
      <path id="Path_48" data-name="Path 48" d="M96.974,80.565a.83.83,0,0,1-.261,0,.741.741,0,0,1-.407-.958c4.719-11.616,19.239-15.275,19.849-15.421a.74.74,0,0,1,.886.537.726.726,0,0,1-.537.871c-.145,0-14.419,3.6-18.876,14.52A.741.741,0,0,1,96.974,80.565Z" transform="translate(-36.279 -20.964)" fill="#d1d3d4"/>
      <path id="Path_29" data-name="Path 29" d="M77.729,122.488c-4.095,0-7.115-.741-7.885-2.744-2.323-6.1,19.051-17.541,28.344-22.173a.726.726,0,1,1,.653,1.292C78.3,109.115,70.164,116.477,71.253,119.192s12.371,2.9,35.2-3.383c10.164-2.788,21.272-6.476,32.308-10.687,11.326-4.356,22.289-9.032,31.7-13.707,20.895-10.368,29.186-17.816,28.111-20.6s-11.849-2.9-33.687,2.977a.711.711,0,0,1-.886-.508.7.7,0,0,1,.508-.886c9.888-2.643,33.135-8.146,35.43-2.091S180.5,88.06,171.052,92.75s-20.445,9.453-31.814,13.765c-11.079,4.211-22.3,7.928-32.453,10.716C99.786,119.148,86.369,122.488,77.729,122.488Z" transform="translate(-48.296 -19.427)" fill="#be85f1"/>
      <path id="Path_47" data-name="Path 47" d="M116.106,64.64S101.469,68.183,96.75,79.683" transform="translate(-36.055 -20.75)" fill="#fff"/>
    </g>
    <g id="stars_and_moon" data-name="stars and moon" transform="translate(18 -2)">
      <circle id="Ellipse_8" data-name="Ellipse 8" cx="9.409" cy="9.409" r="9.409" transform="translate(60.558 462.88)" fill="#fc733f"/>
      <circle id="Ellipse_32" data-name="Ellipse 32" cx="5.409" cy="5.409" r="5.409" transform="translate(114.558 380.88)" fill="#ff3643"/>
      <circle id="Ellipse_31" data-name="Ellipse 31" cx="5.409" cy="5.409" r="5.409" transform="translate(66.558 365.88)" fill="#fcac3f"/>
      <circle id="Ellipse_30" data-name="Ellipse 30" cx="5.409" cy="5.409" r="5.409" transform="translate(234.558 231.88)" fill="#fc733f"/>
      <path id="star" d="M61.524,68.35l1.494,5.08,5.08,1.494-5.08,1.494L61.524,81.5l-1.494-5.08-5.08-1.494,5.08-1.494Z" transform="translate(20.719 343.398)" fill="#4e9cc2"/>
      <path id="star-2" data-name="star" d="M66.77,68.35l2.686,9.133,9.133,2.686-9.133,2.686L66.77,91.989l-2.686-9.133L54.95,80.17l9.133-2.686Z" transform="translate(-27.527 315.153)" fill="#4e9cc2"/>
      <path id="star-3" data-name="star" d="M60.738,68.35l1.315,4.473,4.473,1.315-4.473,1.315-1.315,4.473-1.315-4.473L54.95,74.138l4.473-1.315Z" transform="translate(126.504 184.184)" fill="#4e9cc2"/>
      <path id="star-4" data-name="star" d="M66.77,68.35l2.686,9.133,9.133,2.686-9.133,2.686L66.77,91.989l-2.686-9.133L54.95,80.17l9.133-2.686Z" transform="translate(24.473 240.153)" fill="#4ec28c"/>
      <path id="star-5" data-name="star" d="M60.953,68.35l1.364,4.639,4.639,1.364-4.639,1.364-1.364,4.639-1.364-4.639L54.95,74.353l4.639-1.364Z" transform="translate(77.289 226.969)" fill="#4ec28c"/>
      <path id="star-6" data-name="star" d="M59.9,68.35l1.125,3.823L64.846,73.3l-3.823,1.124L59.9,78.246l-1.124-3.823L54.95,73.3l3.823-1.124Z" transform="translate(221.345 185.025)" fill="#4e9cc2"/>
      <path id="star-7" data-name="star" d="M62.079,68.35l1.62,5.508,5.508,1.62L63.7,77.1l-1.62,5.508L60.458,77.1l-5.508-1.62,5.508-1.62Z" transform="translate(207.164 244.844)" fill="#fff"/>
      <path id="star-8" data-name="star" d="M62.079,68.35l1.62,5.508,5.508,1.62L63.7,77.1l-1.62,5.508L60.458,77.1l-5.508-1.62,5.508-1.62Z" transform="translate(76.164 184.844)" fill="#ba65e3"/>
      <path id="star-9" data-name="star" d="M68.086,68.35,71.071,78.5l10.15,2.985-10.15,2.985-2.985,10.15L65.1,84.471,54.95,81.486,65.1,78.5Z" transform="translate(0.157 183.837)" fill="#fff"/>
      <path id="star-10" data-name="star" d="M62.871,68.35l1.8,6.121,6.121,1.8-6.121,1.8-1.8,6.121-1.8-6.121-6.121-1.8,6.121-1.8Z" transform="translate(83.371 277.051)" fill="#fff"/>
      <path id="star-11" data-name="star" d="M61.689,68.35l1.532,5.208,5.208,1.532-5.208,1.532-1.532,5.208-1.532-5.208L54.95,75.089l5.208-1.532Z" transform="translate(-23.447 265.233)" fill="#fff"/>
      <g id="sartun" transform="translate(128.812 150.707)">
        <circle id="Ellipse_7-2" data-name="Ellipse 7" cx="13.819" cy="13.819" r="13.819" transform="translate(32.218 37.56)" fill="#b73ffc"/>
        <path id="Path_48-2" data-name="Path 48" d="M96.528,70.409a.316.316,0,0,1-.1,0,.282.282,0,0,1-.155-.365c1.8-4.422,7.324-5.815,7.556-5.87a.282.282,0,0,1,.337.2.276.276,0,0,1-.2.332c-.055,0-5.489,1.371-7.186,5.528A.282.282,0,0,1,96.528,70.409Z" transform="translate(-60.186 -24.459)" fill="#d1d3d4"/>
        <path id="Path_29-2" data-name="Path 29" d="M72.737,88.473c-1.559,0-2.709-.282-3-1.045-.884-2.322,7.252-6.677,10.79-8.441a.276.276,0,1,1,.249.492c-7.822,3.9-10.917,6.7-10.5,7.739s4.71,1.106,13.4-1.288c3.869-1.061,8.1-2.465,12.3-4.068,4.312-1.658,8.485-3.438,12.067-5.218,7.954-3.947,11.11-6.782,10.7-7.844s-4.511-1.105-12.824,1.133a.271.271,0,0,1-.337-.193.265.265,0,0,1,.193-.337c3.764-1.006,12.614-3.1,13.487-.8s-7.4,6.76-10.994,8.546-7.783,3.6-12.111,5.24c-4.218,1.6-8.49,3.018-12.354,4.079C81.134,87.2,76.026,88.473,72.737,88.473Z" transform="translate(-48.296 -25.979)" fill="#be85f1"/>
        <path id="Path_47-2" data-name="Path 47" d="M104.118,64.64s-5.572,1.349-7.368,5.727" transform="translate(-60.408 -24.67)" fill="#fff"/>
      </g>
    </g>
  </g>
</svg>
